<?xml version="1.0" standalone="no"?>
<!DOCTYPE svg PUBLIC "-//W3C//DTD SVG 20010904//EN"
 "http://www.w3.org/TR/2001/REC-SVG-20010904/DTD/svg10.dtd">
<svg version="1.0" xmlns="http://www.w3.org/2000/svg"
 width="537.000000pt" height="229.000000pt" viewBox="0 0 537.000000 229.000000"
 preserveAspectRatio="xMidYMid meet">

<g transform="translate(0.000000,229.000000) scale(0.100000,-0.100000)"
fill="#000000" stroke="none">
<path d="M4105 2239 c-402 -25 -422 -27 -698 -80 l-277 -53 -64 17 c-147 39
-648 5 -881 -60 -92 -26 -419 -219 -505 -298 -19 -18 -55 -44 -78 -57 -24 -14
-38 -28 -32 -30 8 -2 -8 -27 -39 -63 -28 -33 -90 -107 -137 -165 -69 -83 -98
-111 -146 -137 -32 -17 -73 -42 -91 -56 -18 -13 -60 -38 -94 -56 -35 -17 -63
-34 -63 -36 0 -3 9 -1 19 5 26 13 30 13 27 -5 -1 -9 -22 -37 -47 -63 -105
-110 -129 -142 -129 -169 l0 -28 -85 -1 c-46 0 -90 -6 -98 -12 -8 -7 -29 -9
-50 -5 -26 4 -43 1 -55 -10 -9 -8 -35 -20 -56 -26 -22 -6 -52 -24 -68 -41 -24
-27 -33 -30 -59 -25 -38 9 -89 -23 -171 -105 -81 -82 -120 -169 -126 -277 -4
-78 -3 -86 23 -123 42 -60 134 -140 193 -168 64 -29 125 -27 167 6 l27 21 34
-25 c30 -23 41 -26 91 -22 79 7 93 26 93 129 l0 79 40 -20 c56 -28 167 -28
204 1 14 11 26 28 26 37 0 12 10 6 33 -20 87 -99 209 -89 308 23 l46 52 34
-35 c19 -20 48 -43 66 -52 76 -38 219 -2 300 77 l43 41 22 -21 c55 -50 125
-57 226 -21 48 17 74 34 111 73 26 27 52 59 58 69 10 18 13 17 52 -14 51 -42
128 -52 182 -25 42 21 116 91 135 128 8 15 18 27 22 27 4 -1 23 -21 42 -46 88
-115 209 -109 306 15 l48 61 37 -39 c43 -44 89 -57 147 -41 64 17 74 35 72
137 -2 84 14 250 28 303 6 20 15 26 51 31 79 10 129 95 112 187 -5 24 -16 49
-26 56 -16 11 -5 18 96 61 63 26 122 51 131 56 13 7 22 1 40 -29 12 -20 34
-47 48 -60 l25 -23 -22 -17 c-11 -9 -33 -42 -48 -72 -15 -30 -35 -60 -44 -67
-10 -8 -12 -12 -3 -13 6 0 12 -10 12 -22 0 -21 -9 -25 -112 -45 -127 -26 -180
-55 -204 -111 -16 -40 -13 -56 21 -95 35 -39 60 -45 155 -37 112 10 146 19
165 41 16 17 20 15 81 -36 87 -75 118 -89 187 -89 46 1 62 5 83 25 l25 24 39
-23 c61 -35 88 -30 110 20 10 24 22 67 26 96 6 44 11 55 31 63 21 8 28 5 46
-18 11 -16 42 -49 68 -75 54 -56 80 -60 140 -22 39 24 40 27 39 77 -3 82 -5
79 40 61 64 -26 193 -16 253 19 26 15 51 37 57 48 11 19 13 18 61 -20 68 -54
126 -75 183 -67 36 6 53 16 90 56 27 29 46 59 46 72 0 44 -19 88 -52 123 -32
34 -34 35 -89 29 -31 -3 -59 -2 -61 2 -3 5 -1 24 4 41 10 37 97 113 129 113
11 0 18 3 16 8 -3 4 6 21 19 37 l24 30 0 -25 c0 -15 -5 -31 -12 -38 -8 -8 -8
-12 -1 -12 22 0 30 27 31 105 0 58 -3 84 -14 95 -8 8 -20 23 -27 32 -9 13 -31
19 -88 23 -73 4 -79 3 -120 -26 -104 -73 -192 -193 -207 -284 -5 -27 -14 -41
-27 -45 -11 -3 -39 -18 -63 -33 -48 -31 -67 -28 -57 12 4 14 18 73 30 130 21
90 22 105 10 118 -16 16 -20 43 -7 43 5 0 14 -10 20 -22 8 -18 11 -19 11 -5 1
9 -7 25 -16 35 -10 10 -23 27 -29 38 -7 12 -24 20 -45 22 -19 1 -44 7 -55 13
-36 18 -58 6 -84 -45 -14 -27 -33 -58 -42 -68 -11 -11 -18 -35 -19 -60 -1 -24
-4 -56 -8 -72 l-6 -29 -30 43 c-48 70 -77 96 -125 110 -25 7 -49 17 -55 21 -6
4 -9 39 -7 81 l3 73 74 40 c79 42 85 52 85 139 0 39 3 43 33 51 26 8 34 17 41
48 7 27 6 48 -3 70 -7 18 -21 66 -32 107 -31 119 -33 120 -142 118 -50 0 -150
-5 -222 -9z m156 -29 c10 -6 19 -17 19 -25 0 -24 -44 -17 -70 10 l-23 25 27 0
c15 0 36 -5 47 -10z m161 -31 c20 -39 28 -128 13 -129 -5 -1 -17 27 -25 62
l-16 63 -40 3 c-27 2 -44 9 -52 23 -12 19 -11 20 45 17 55 -3 59 -5 75 -39z
m-299 11 c3 -11 2 -22 -2 -25 -5 -2 -59 -9 -121 -15 -110 -10 -114 -10 -137
12 -13 12 -20 25 -16 29 8 8 74 13 204 17 59 2 67 0 72 -18z m-323 -10 c22
-11 40 -25 40 -31 0 -17 -27 -21 -51 -8 -17 9 -24 9 -27 0 -5 -16 -36 -14 -71
7 -40 22 -39 30 7 37 20 4 42 8 47 10 6 2 11 4 13 4 1 1 21 -8 42 -19z m-183
-30 c3 -11 5 -23 4 -27 -1 -10 -271 -44 -293 -37 -25 7 -22 23 5 29 47 11 253
53 265 54 8 1 16 -8 19 -19z m623 -138 c18 -98 20 -125 10 -137 -19 -23 -31
-18 -19 9 9 19 7 50 -10 139 -23 126 -26 151 -11 127 4 -9 18 -71 30 -138z
m134 116 c3 -13 5 -36 5 -53 -1 -26 -3 -24 -13 15 l-12 45 -53 -4 c-37 -2 -51
0 -47 8 4 6 31 11 60 11 47 0 54 -3 60 -22z m-264 -8 c-14 -5 -69 -12 -122
-15 -54 -4 -100 -10 -102 -13 -2 -4 0 -36 5 -71 9 -60 6 -82 -6 -69 -3 3 -8
35 -12 72 l-6 66 -60 0 c-97 0 -56 14 76 26 153 14 262 16 227 4z m-1085 -20
c4 -6 -34 -10 -107 -10 -136 0 -290 -14 -454 -40 -124 -20 -284 -64 -284 -79
0 -4 23 -45 50 -91 51 -85 58 -119 14 -65 -36 43 -108 195 -98 205 22 20 267
66 419 79 148 12 453 13 460 1z m255 -10 c19 -12 13 -16 -40 -27 l-45 -9 2
-78 c1 -67 0 -77 -15 -74 -19 4 -34 70 -30 138 3 43 5 45 38 51 54 10 74 10
90 -1z m460 -130 c22 -123 22 -132 6 -148 -15 -16 -16 -15 -10 14 3 16 -4 81
-15 144 -24 129 -24 133 -13 126 5 -3 19 -64 32 -136z m-110 120 c0 -5 -6 -10
-13 -10 -22 0 -339 -40 -362 -46 -17 -4 -20 -11 -16 -57 4 -62 -9 -56 -19 8
-4 29 -3 48 5 55 6 5 76 18 155 29 241 34 250 35 250 21z m-499 -100 c4 -52 2
-97 -3 -98 -29 -12 -40 -37 -34 -81 l6 -46 -66 -53 c-36 -30 -64 -56 -61 -58
3 -3 33 9 67 26 34 17 67 29 74 27 6 -2 20 -27 32 -54 l21 -50 -59 -52 c-33
-28 -70 -51 -82 -51 -25 0 -174 147 -220 216 -35 53 -89 79 -151 72 -27 -3
-55 -14 -68 -26 -12 -12 -43 -40 -69 -64 -84 -79 -98 -201 -43 -375 27 -87 25
-108 -4 -42 -20 46 -27 36 -12 -17 8 -29 7 -31 -38 -53 -117 -58 -134 -68
-162 -98 -43 -48 -72 -52 -110 -14 -21 21 -40 31 -62 31 -46 0 -26 14 99 71
59 27 113 54 121 60 20 17 16 53 -16 154 -17 50 -37 143 -46 205 l-17 114 28
23 c78 63 290 172 439 225 94 34 291 87 375 101 54 9 55 8 61 -93z m1213 74
c11 -28 6 -54 -9 -54 -10 0 -15 11 -15 35 0 36 13 47 24 19z m-827 -30 c-3 -3
-12 -4 -19 -1 -8 3 -5 6 6 6 11 1 17 -2 13 -5z m333 -39 c0 -60 -26 -63 -32
-4 -4 43 -2 49 19 49 9 0 13 -14 13 -45z m203 38 c-7 -2 -19 -2 -25 0 -7 3 -2
5 12 5 14 0 19 -2 13 -5z m-1544 -55 c11 -14 17 -28 14 -32 -14 -14 -34 -4
-67 32 -29 31 -32 38 -18 43 20 7 43 -7 71 -43z m934 45 c-7 -2 -19 -2 -25 0
-7 3 -2 5 12 5 14 0 19 -2 13 -5z m1021 -9 c3 -8 3 -26 0 -39 -5 -20 -16 -25
-87 -38 -45 -9 -83 -15 -83 -14 -1 1 -4 12 -8 23 -6 19 -2 22 44 28 28 4 55 4
60 1 6 -3 10 5 10 18 0 13 3 27 7 30 12 13 51 7 57 -9z m-2320 -48 c9 -24 34
-73 56 -109 43 -71 45 -77 30 -77 -13 0 -110 147 -110 166 0 26 -20 24 -82 -7
-132 -66 -235 -136 -303 -204 -76 -76 -175 -194 -221 -264 -21 -33 -43 -50
-83 -68 -29 -13 -56 -22 -59 -19 -8 8 178 222 275 317 48 47 126 110 173 139
123 78 283 170 296 170 6 0 19 -20 28 -44z m275 2 c22 -24 41 -46 41 -49 0 -3
-15 -13 -34 -22 l-34 -16 -41 49 c-23 27 -41 51 -41 54 0 3 15 10 33 15 17 5
33 10 34 10 1 1 20 -18 42 -41z m1751 -43 c0 -14 -3 -25 -7 -25 -5 0 -78 -11
-163 -25 -85 -14 -168 -25 -183 -25 -26 0 -28 3 -25 33 l3 32 140 16 c77 9
161 17 188 18 44 1 47 -1 47 -24z m-499 -60 c9 -33 -1 -44 -41 -45 -14 -1
-128 -16 -255 -34 -258 -37 -255 -37 -255 36 0 41 16 53 76 60 24 3 29 -2 37
-32 7 -23 12 -29 14 -17 3 9 10 17 16 18 7 0 93 11 192 24 99 12 186 22 194
21 8 0 18 -14 22 -31z m720 -43 c-7 -25 -13 -28 -107 -44 -164 -29 -728 -115
-908 -138 -163 -21 -170 -22 -183 -4 -19 26 -16 43 10 48 12 3 85 12 162 21
153 18 478 64 671 95 68 11 144 20 169 20 25 0 53 4 63 10 19 11 113 29 124
23 3 -2 3 -15 -1 -31z m-2313 -34 c17 -17 15 -33 -3 -18 -19 16 -46 -4 -39
-28 5 -14 3 -14 -10 2 -29 36 19 77 52 44z m-209 -93 c-1 -53 -6 -98 -10 -101
-10 -6 -12 179 -2 189 12 13 13 6 12 -88z m-43 -112 c-3 -7 -10 -13 -16 -13
-15 0 -13 173 3 189 10 10 13 -5 15 -75 2 -48 1 -93 -2 -101z m264 136 c6 -10
7 -19 2 -19 -5 0 -14 12 -20 26 -14 29 2 24 18 -7z m125 -56 c11 -94 35 -203
63 -286 18 -54 23 -83 17 -93 -18 -26 -245 -124 -290 -124 -31 0 -53 -9 -95
-40 -30 -22 -76 -51 -103 -65 -44 -24 -49 -24 -77 -10 -16 8 -37 15 -47 15
-10 0 -27 7 -37 15 -11 8 -37 15 -58 15 -37 0 -38 1 -54 58 -10 33 -18 94 -18
146 l-1 89 94 38 c101 41 124 54 76 44 -29 -6 -29 -6 -11 9 11 9 23 16 27 16
14 0 215 88 317 138 53 27 102 47 107 45 6 -1 24 8 40 22 17 13 33 24 36 25 4
0 10 -26 14 -57z m545 52 c0 -2 -17 -9 -39 -15 -87 -23 -156 -143 -171 -300
l-9 -85 4 95 c5 143 50 241 130 287 36 20 85 31 85 18z m1290 -245 c-6 -22
-14 -40 -19 -40 -4 0 -2 23 5 52 8 29 15 73 16 98 2 41 2 40 5 -12 2 -32 -1
-75 -7 -98z m135 -6 c-21 -52 -26 -39 -9 26 8 30 15 70 16 90 1 20 3 11 5 -22
3 -36 -2 -70 -12 -94z m-85 21 c-6 -30 -16 -58 -22 -61 -8 -5 -9 1 -5 17 4 13
13 56 20 94 9 54 13 63 15 37 2 -18 -2 -57 -8 -87z m50 30 c-6 -37 -17 -80
-25 -94 -19 -34 -19 -9 0 53 8 27 15 67 15 90 0 28 3 37 10 30 8 -8 8 -32 0
-79z m564 79 c21 -8 20 -21 -2 -26 -12 -4 -18 1 -19 13 -2 21 -1 22 21 13z
m-76 -20 c6 4 9 -4 7 -19 -2 -21 1 -24 18 -19 17 5 19 3 15 -17 -3 -13 -9 -33
-13 -44 -5 -16 -5 -17 4 -5 9 13 11 13 11 -1 0 -28 -22 -83 -38 -96 -14 -12
-14 -13 4 -13 18 -1 18 -1 2 -14 -21 -15 -25 -81 -5 -90 10 -5 10 -7 0 -12
-16 -7 -17 -34 -2 -34 5 0 7 -5 4 -11 -4 -6 2 -19 14 -30 20 -19 21 -19 69 -1
26 10 66 31 87 45 32 22 41 24 43 12 2 -8 10 -15 19 -15 12 0 15 -8 10 -40 -7
-56 -31 -89 -81 -111 -43 -19 -159 -30 -172 -16 -4 4 -16 7 -27 7 -10 0 -21 9
-24 20 -3 11 -8 20 -12 20 -29 0 -62 200 -39 236 4 6 8 45 9 87 3 68 5 77 26
86 13 6 23 19 23 31 0 28 22 62 31 48 4 -6 11 -8 17 -4z m514 4 c4 -10 10 -10
32 0 31 14 79 17 57 3 -10 -6 -10 -10 -1 -16 8 -5 3 -13 -17 -26 -15 -10 -22
-19 -15 -19 24 0 11 -20 -23 -34 -19 -8 -35 -18 -35 -21 0 -3 6 -3 13 1 6 3
-10 -13 -38 -37 -81 -71 -97 -89 -92 -104 3 -7 0 -16 -8 -19 -14 -5 -14 -31 0
-73 10 -30 73 -53 146 -53 56 0 60 -2 54 -20 -4 -11 -2 -20 4 -20 23 0 9 -34
-28 -71 -56 -56 -95 -54 -186 9 -82 57 -101 87 -104 170 -4 107 67 227 183
313 43 32 52 35 58 17z m-2316 -100 c3 -11 6 -51 5 -89 -1 -168 -98 -237 -154
-111 -21 49 -28 142 -14 195 11 40 27 33 27 -12 0 -22 5 -43 11 -46 17 -11 24
4 11 25 -9 15 -8 23 8 42 19 21 21 22 30 6 14 -24 26 -23 33 2 6 25 33 17 43
-12z m1494 -14 c18 -4 34 -18 49 -44 11 -20 28 -43 36 -50 8 -7 15 -27 15 -46
0 -18 7 -39 15 -48 9 -8 14 -19 13 -23 -1 -4 4 -26 10 -48 13 -43 27 -132 37
-232 6 -59 5 -61 -15 -56 -14 4 -20 1 -18 -8 6 -27 -35 -20 -68 12 -26 25 -35
44 -40 81 -7 52 -8 52 -74 37 -38 -9 -46 -8 -57 6 -18 25 -30 11 -37 -42 -17
-121 -26 -152 -47 -150 -18 1 -24 19 -20 55 1 6 -3 12 -9 12 -5 0 -10 -8 -10
-17 0 -10 -5 -25 -10 -33 -7 -10 -9 3 -5 45 4 33 10 101 15 152 11 112 23 160
47 180 15 12 15 14 2 10 -13 -4 -15 -1 -12 14 3 10 9 19 13 19 7 0 23 46 19
52 -4 7 41 86 55 97 9 8 16 20 16 28 0 11 7 13 26 9 15 -4 39 -9 54 -12z
m-1370 -209 c-6 -30 -16 -58 -22 -61 -8 -5 -9 1 -4 17 3 13 12 58 19 99 10 63
13 69 15 37 2 -21 -2 -62 -8 -92z m100 75 c0 -27 -3 -50 -7 -50 -5 0 -6 22 -5
50 5 65 12 65 12 0z m995 42 c-3 -3 0 -10 5 -17 7 -8 2 -16 -18 -25 -15 -7
-22 -15 -14 -17 22 -8 13 -22 -24 -38 -19 -8 -33 -19 -29 -25 3 -5 2 -10 -3
-10 -17 0 -123 -110 -116 -121 4 -6 2 -14 -4 -18 -12 -8 -16 -49 -7 -78 10
-31 76 -55 144 -52 43 2 56 0 56 -12 0 -8 4 -20 8 -27 13 -19 -1 -48 -39 -81
-53 -47 -94 -43 -182 19 -87 61 -101 88 -99 183 2 57 8 83 30 125 15 29 35 60
45 70 9 10 29 33 44 51 46 57 83 76 149 77 32 0 57 -1 54 -4z m-2563 -88 c4
-43 15 -110 24 -148 13 -55 14 -71 5 -74 -7 -2 -28 -18 -48 -35 l-34 -30 -37
36 c-34 33 -44 37 -88 37 -48 0 -54 -3 -102 -51 -31 -31 -65 -54 -89 -61 -37
-10 -115 -77 -125 -108 -3 -11 -14 -7 -46 19 -36 28 -42 38 -42 71 0 35 9 48
126 169 69 72 142 140 161 152 41 26 263 109 278 105 6 -1 13 -38 17 -82z
m1519 6 c-11 -70 -27 -117 -37 -107 -3 3 2 29 10 58 9 29 16 67 16 84 0 30 8
50 18 41 2 -3 -1 -37 -7 -76z m95 13 c-11 -29 -17 -6 -9 33 7 36 8 37 11 11 2
-16 1 -36 -2 -44z m-549 -25 c-3 -7 -5 -2 -5 12 0 14 2 19 5 13 2 -7 2 -19 0
-25z m843 -29 c0 -43 -21 -94 -42 -101 -7 -3 -34 -4 -59 -2 l-46 3 -12 -49
c-7 -27 -14 -66 -16 -87 -1 -21 -5 -45 -9 -53 -6 -17 -7 -27 -9 -175 -2 -99
-4 -110 -19 -107 -10 2 -18 -2 -18 -8 0 -13 -43 -13 -74 1 -31 14 -39 34 -25
61 13 24 27 114 35 218 2 41 9 79 14 84 6 6 10 26 10 46 0 35 -1 36 -30 32
-23 -3 -30 0 -30 12 0 9 -7 16 -15 16 -9 0 -15 9 -15 25 0 15 6 25 14 25 9 0
12 7 9 20 -6 22 -7 21 84 25 28 1 64 7 80 12 15 6 48 16 73 23 25 7 54 16 65
20 29 11 35 4 35 -41z m-820 -87 c45 -45 56 -98 42 -200 -19 -137 -30 -190
-42 -207 -4 -5 -10 -22 -14 -37 -3 -16 -11 -28 -16 -28 -6 0 -10 -5 -10 -11 0
-22 -63 -90 -103 -110 -45 -23 -114 -22 -143 2 -28 23 -66 90 -69 123 -2 17
-8 60 -13 96 -14 102 -1 205 27 213 11 2 29 23 40 45 26 51 58 76 76 59 10
-10 9 -17 -4 -37 -34 -49 -35 -53 -12 -41 26 14 27 2 4 -42 -20 -39 -34 -99
-22 -91 5 3 9 14 9 24 0 10 4 21 9 25 6 3 6 -7 0 -27 -5 -18 -9 -50 -9 -70 0
-25 -6 -40 -17 -47 -16 -10 -16 -11 5 -17 20 -6 22 -11 16 -37 -3 -16 -2 -32
2 -36 5 -3 14 -15 20 -26 6 -11 19 -22 29 -23 20 -4 75 45 75 68 0 9 8 32 18
51 27 52 30 217 6 259 -10 16 -27 30 -37 30 -11 0 -17 5 -14 13 2 6 -3 17 -11
23 -21 15 -9 40 30 64 48 29 93 26 128 -8z m1486 -64 l-4 -73 -43 -8 c-24 -4
-54 -5 -66 -2 -19 4 -21 9 -13 38 9 32 93 117 117 117 9 0 11 -20 9 -72z
m-1074 12 c29 -30 30 -33 25 -103 -3 -40 -13 -103 -22 -142 -9 -38 -18 -76
-19 -83 -1 -7 -8 -18 -14 -24 -7 -7 -12 -19 -12 -28 0 -23 -67 -103 -103 -122
-65 -35 -130 -14 -167 54 -10 20 -17 38 -15 40 3 2 0 20 -5 39 -6 19 -12 69
-15 111 -4 70 -2 79 15 88 11 6 20 21 21 33 1 28 27 98 28 75 1 -9 6 -18 12
-20 6 -2 12 -16 12 -31 0 -32 5 -34 24 -9 12 15 13 9 9 -43 -3 -37 -2 -49 2
-30 5 20 8 1 7 -57 0 -49 -3 -88 -7 -88 -14 0 -8 -17 17 -45 24 -28 24 -29 45
-10 11 10 20 27 20 38 0 11 8 29 17 39 14 16 16 42 16 172 0 127 2 153 13 149
8 -3 14 1 14 11 0 27 48 19 82 -14z m-972 -10 c0 -5 15 -10 33 -10 37 0 77
-24 77 -46 0 -8 -4 -12 -10 -9 -5 3 -10 -1 -10 -10 0 -12 -4 -14 -19 -5 -28
15 -42 12 -39 -6 2 -12 -6 -17 -30 -19 -19 -2 -39 -8 -44 -13 -8 -8 -4 -9 13
-6 l24 5 -24 -11 c-31 -14 -86 -60 -71 -60 9 0 9 -4 0 -15 -11 -13 -9 -20 11
-41 12 -13 29 -22 36 -20 7 3 13 -1 13 -9 0 -8 12 -18 28 -21 15 -4 32 -11 38
-16 7 -5 26 -10 43 -13 36 -4 51 -12 51 -27 0 -5 11 -23 25 -40 41 -48 31 -99
-34 -177 -46 -55 -126 -91 -200 -91 -40 0 -56 6 -89 33 -27 20 -41 40 -41 56
-1 17 3 22 14 17 9 -3 15 0 15 8 0 19 21 25 67 19 48 -6 152 21 169 45 18 24
-6 47 -70 68 -125 40 -187 95 -189 167 -2 96 36 169 117 223 49 33 96 45 96
24z m820 -81 c0 -16 -4 -29 -10 -29 -12 0 -24 45 -15 60 11 18 25 1 25 -31z
m-1218 10 c2 -7 19 -13 38 -15 51 -6 56 -9 69 -46 9 -29 9 -31 -3 -15 -9 12
-16 14 -21 8 -3 -6 -17 -8 -31 -5 -18 5 -24 2 -24 -10 0 -11 -9 -16 -28 -16
-16 0 -37 -7 -48 -15 -19 -15 -19 -15 1 -8 24 7 21 4 -25 -34 -42 -34 -49 -68
-18 -93 12 -10 28 -16 34 -13 6 2 14 -5 17 -16 3 -14 13 -21 29 -21 12 0 32
-7 42 -15 11 -8 29 -15 40 -15 20 0 60 -41 85 -88 32 -61 -45 -181 -143 -220
-82 -32 -142 -30 -194 9 -31 23 -42 38 -42 57 0 19 3 23 9 13 6 -9 11 -10 15
-2 4 6 4 16 1 21 -7 12 -9 12 85 14 74 2 150 27 157 52 6 19 -31 51 -67 59
-63 14 -144 61 -177 105 -36 47 -40 43 -47 -48 -2 -29 -7 -56 -10 -59 -3 -4
-6 -14 -6 -23 0 -22 -37 -107 -50 -115 -6 -3 -10 -14 -10 -23 -1 -25 -52 -78
-99 -101 -77 -40 -140 -21 -188 57 -18 28 -28 54 -22 57 5 4 5 13 0 23 -17 32
-28 147 -21 207 10 75 18 95 35 89 9 -4 23 12 39 45 29 55 53 75 71 58 9 -9 8
-19 -7 -46 -16 -27 -16 -32 -4 -28 12 5 15 0 14 -18 -1 -14 -6 -25 -11 -25 -4
0 -6 -4 -3 -9 3 -4 -1 -17 -9 -27 -17 -22 -20 -48 -4 -38 14 8 1 -105 -13
-123 -8 -9 -6 -13 5 -13 11 0 15 -9 15 -28 -1 -43 24 -86 51 -90 28 -4 70 41
71 76 0 12 4 22 9 22 19 0 31 66 31 164 0 106 -11 135 -53 149 -10 4 -16 11
-13 16 4 5 1 11 -6 13 -21 7 1 57 32 73 87 45 170 -22 170 -140 0 -26 5 -45
11 -45 7 0 9 10 5 25 -9 33 9 90 43 140 46 68 161 130 173 94z m2060 -24 c10
-21 8 -29 -11 -49 -28 -29 -141 -63 -152 -45 -6 10 -16 10 -47 0 -53 -18 -66
-9 -43 32 21 39 50 54 138 71 97 19 102 19 115 -9z m-2312 5 c-19 -13 -30 -13
-30 0 0 6 10 10 23 10 18 0 19 -2 7 -10z m425 0 c-3 -5 -11 -10 -16 -10 -6 0
-7 5 -4 10 3 6 11 10 16 10 6 0 7 -4 4 -10z m-1002 -147 c-13 -2 -35 -2 -50 0
-16 2 -5 4 22 4 28 0 40 -2 28 -4z m91 -4 c14 -7 29 -25 35 -40 5 -16 14 -29
19 -29 15 0 8 -51 -12 -90 -10 -19 -31 -48 -47 -65 -15 -16 -28 -34 -28 -40
-1 -5 -10 -11 -21 -11 -20 -1 -60 -31 -60 -44 0 -4 25 -20 55 -36 31 -15 60
-33 66 -41 7 -7 17 -13 24 -13 19 0 26 -27 9 -34 -9 -3 -12 -11 -9 -16 11 -19
-14 -38 -59 -44 -50 -8 -81 2 -153 50 -28 19 -53 34 -56 34 -3 0 -4 -30 -4
-67 0 -166 0 -167 -34 -180 -26 -10 -37 -9 -61 3 -39 20 -43 36 -30 108 27
142 22 196 -18 196 -26 0 -60 17 -60 30 0 6 12 10 28 10 15 0 38 7 50 16 18
12 22 25 22 70 0 39 4 54 14 54 7 0 16 10 19 23 2 12 8 30 12 40 6 15 1 17
-40 17 -46 0 -86 -22 -65 -35 12 -7 -12 -35 -32 -36 -10 0 -10 -2 0 -6 22 -9
13 -24 -23 -39 -19 -8 -35 -17 -35 -20 0 -3 6 -2 13 2 6 3 -10 -13 -38 -37
-27 -24 -53 -43 -57 -42 -10 4 -40 -55 -33 -66 2 -5 -2 -11 -9 -14 -15 -6 -15
-32 -1 -74 10 -31 77 -55 144 -52 43 2 56 0 56 -12 0 -8 4 -20 8 -27 23 -36
-52 -112 -110 -112 -54 0 -170 77 -198 133 -24 48 -14 161 19 227 44 85 206
235 206 190 0 -17 26 -11 64 15 20 14 44 25 52 25 8 0 14 7 12 17 -2 13 8 19
47 26 27 4 52 11 55 15 3 4 15 7 28 8 12 0 58 1 103 2 50 1 78 6 74 12 -8 14
28 13 59 -1z m1276 -39 c0 -5 -7 -10 -15 -10 -8 0 -15 5 -15 10 0 6 7 10 15
10 8 0 15 -4 15 -10z m-460 -51 c0 -11 -4 -18 -10 -14 -5 3 -7 12 -3 20 7 21
13 19 13 -6z m130 -60 c19 -22 52 -50 73 -61 49 -25 42 -32 -22 -23 -46 6 -53
11 -90 60 -23 30 -41 57 -41 60 0 3 10 5 23 5 13 0 35 -16 57 -41z m-620 -96
c0 -10 -7 -27 -15 -37 -14 -19 -15 -18 -15 17 0 26 4 37 15 37 8 0 15 -8 15
-17z m-720 -210 c0 -12 -112 -29 -129 -19 -13 8 2 57 25 84 l17 21 43 -37 c24
-20 43 -42 44 -49z"/>
<path d="M2173 1604 c3 -11 9 -43 12 -71 6 -48 17 -65 28 -45 9 14 -19 126
-32 130 -9 3 -11 -2 -8 -14z"/>
<path d="M2210 1446 c0 -24 33 -116 42 -116 12 0 10 17 -9 77 -16 50 -33 70
-33 39z"/>
<path d="M1703 1429 c-46 -21 -61 -59 -23 -59 40 0 70 22 70 52 0 15 -1 28 -2
27 -2 0 -22 -9 -45 -20z m13 -24 c-11 -8 -25 -15 -30 -15 -6 0 -2 7 8 15 11 8
25 15 30 15 6 0 2 -7 -8 -15z"/>
<path d="M2760 1420 c-41 -41 0 -132 42 -93 24 21 23 75 -1 97 -18 17 -20 17
-41 -4z m30 -46 c0 -21 -4 -33 -10 -29 -17 10 -11 65 7 65 2 0 3 -16 3 -36z"/>
<path d="M2707 1303 c-4 -3 -7 -15 -7 -26 0 -16 3 -17 15 -7 8 7 15 19 15 26
0 15 -12 19 -23 7z"/>
<path d="M2766 1261 c-8 -12 3 -41 15 -41 5 0 9 11 9 25 0 25 -14 34 -24 16z"/>
<path d="M4272 1288 c-6 -13 -13 -48 -14 -78 l-3 -55 43 -3 c51 -4 59 10 42
65 -30 96 -47 113 -68 71z"/>
<path d="M2750 779 c0 -5 5 -7 10 -4 6 3 10 8 10 11 0 2 -4 4 -10 4 -5 0 -10
-5 -10 -11z"/>
<path d="M668 745 c-3 -4 -20 -7 -37 -7 -17 -1 -31 -5 -31 -10 0 -5 5 -6 10
-3 6 3 13 0 16 -9 3 -8 12 -12 20 -9 13 5 20 -34 16 -89 -2 -23 3 -23 47 4 63
38 111 79 111 95 0 13 -9 14 -50 9 -41 -6 -50 -4 -50 9 0 8 -7 15 -15 15 -8 0
-15 -6 -15 -12 0 -10 -2 -10 -8 0 -5 7 -11 10 -14 7z"/>
</g>
</svg>
